<?xml version="1.0" encoding="UTF-8" standalone="no"?>
<svg
   xmlns:dc="http://purl.org/dc/elements/1.1/"
   xmlns:cc="http://creativecommons.org/ns#"
   xmlns:rdf="http://www.w3.org/1999/02/22-rdf-syntax-ns#"
   xmlns:svg="http://www.w3.org/2000/svg"
   xmlns="http://www.w3.org/2000/svg"
   viewBox="0 0 280.67499 233.28751"
   height="233.28751"
   width="280.67499"
   xml:space="preserve"
   version="1.1"
   id="svg2"><metadata
     id="metadata8"><rdf:RDF><cc:Work
         rdf:about=""><dc:format>image/svg+xml</dc:format><dc:type
           rdf:resource="http://purl.org/dc/dcmitype/StillImage" /></cc:Work></rdf:RDF></metadata><defs
     id="defs6" /><g
     transform="matrix(1.25,0,0,-1.25,0,233.2875)"
     id="g10"><g
       transform="scale(0.1,0.1)"
       id="g12"><path
         id="path14"
         style="fill:#00a48c;fill-opacity:1;fill-rule:evenodd;stroke:none"
         d="m 0,958.367 95.8906,0 0,114.423 52.1684,0 c 38.414,0 66.976,8.78 85.722,26.41 18.719,17.63 28.086,42.11 28.086,73.41 0,30.43 -8.601,53.93 -25.785,70.4 -17.199,16.5 -43.059,24.78 -77.586,24.78 L 0,1267.79 0,958.367 Z m 95.8906,246.553 27.1684,0 c 17.828,0 29.988,-3.4 36.453,-10.17 6.465,-6.78 9.699,-15.05 9.699,-24.79 0,-10.02 -3.723,-18.26 -11.168,-24.68 -7.457,-6.44 -20.367,-9.65 -38.766,-9.65 l -23.3864,0 0,69.29" /><path
         id="path16"
         style="fill:#00a48c;fill-opacity:1;fill-rule:evenodd;stroke:none"
         d="m 323.93,1267.77 95.879,0 0,-108.77 103.941,0 0,108.77 95.883,0 0,-309.403 -95.883,0 0,124.893 -103.941,0 0,-124.893 -95.879,0 0,309.403" /><path
         id="path18"
         style="fill:#00a48c;fill-opacity:1;fill-rule:evenodd;stroke:none"
         d="m 703.328,1022.3 c 14.207,-24.109 32.754,-41.726 55.637,-52.862 22.859,-11.141 51.742,-16.711 86.664,-16.711 34.355,0 63.012,6.433 86.027,19.332 23.016,12.918 40.614,30.981 52.774,54.181 12.179,23.17 18.27,52.9 18.27,89.15 0,49.93 -13.942,88.74 -41.805,116.46 -27.868,27.7 -67.551,41.56 -119.082,41.56 -50.243,0 -89.422,-14.11 -117.583,-42.3 -28.14,-28.2 -42.222,-67.63 -42.222,-118.27 0,-36.24 7.113,-66.44 21.32,-90.54 m 92.016,158.08 c 11.633,13.67 27.07,20.51 46.277,20.51 20.047,0 35.93,-6.74 47.629,-20.21 11.715,-13.47 17.566,-34.79 17.566,-64 0,-34.71 -5.621,-58.76 -16.824,-72.16 -11.226,-13.38 -27.074,-20.09 -47.531,-20.09 -19.926,0 -35.652,6.83 -47.199,20.51 -11.59,13.67 -17.364,36.19 -17.364,67.51 0,31.6 5.813,54.22 17.446,67.93" /><path
         id="path20"
         style="fill:#00a48c;fill-opacity:1;fill-rule:evenodd;stroke:none"
         d="m 1065.09,1267.77 255.42,0 0,-66.07 -159.54,0 0,-49.16 148.25,0 0,-62.86 -148.25,0 0,-61.22 164.38,0 0,-70.093 -260.26,0 0,309.403" /><path
         id="path22"
         style="fill:#00a48c;fill-opacity:1;fill-rule:evenodd;stroke:none"
         d="m 1389.01,1267.77 88.8,0 116.64,-171.41 0,171.41 90.27,0 0,-309.403 -90.27,0 -116.01,170.483 0,-170.483 -89.43,0 0,309.403" /><path
         id="path24"
         style="fill:#00a48c;fill-opacity:1;fill-rule:evenodd;stroke:none"
         d="m 1763.2,958.355 95.9023,0 0,309.414 -95.9023,0 0,-309.414 z" /><path
         id="path26"
         style="fill:#00a48c;fill-opacity:1;fill-rule:evenodd;stroke:none"
         d="m 1917.52,1267.77 105.58,0 54.66,-95.2 53.28,95.2 103.95,0 -96.12,-149.85 104.98,-159.553 -107.14,0 -60.85,99.413 -61.65,-99.413 -106.36,0 106.8,161.243 -97.13,148.16" /><path
         id="path28"
         style="fill:#00a48c;fill-opacity:1;fill-rule:evenodd;stroke:none"
         d="m 347.344,1331.33 c 101.269,311.56 393.597,534.93 738.926,534.93 344.6,0 636.8,-224.24 738.69,-534.76 l -69.09,-0.03 c -99.71,273.23 -361.88,470.12 -669.6,470.12 -308.145,0 -570.137,-196.57 -669.547,-470.35 l -69.379,0.09" /><path
         id="path30"
         style="fill:#00a48c;fill-opacity:1;fill-rule:evenodd;stroke:none"
         d="M 1783.88,744.34 C 1656.79,488.09 1391.67,311.66 1086.27,311.66 c -305.418,0 -569.692,176.168 -696.774,432.43 l 73.067,0.25 C 584.129,525.289 818.004,376.359 1086.27,376.359 c 267.67,0 502,149.75 623.81,367.981 l 73.8,0" /><path
         id="path32"
         style="fill:#231f20;fill-opacity:1;fill-rule:nonzero;stroke:none"
         d="m 1780.55,813.75 0,7.332 c -2.38,-1.113 -5.46,-1.98 -9.33,-2.66 l -7.48,-1.152 c -3.51,-0.551 -6.23,-1.559 -8.06,-3.032 -1.82,-1.457 -2.74,-3.308 -2.74,-5.547 0,-2.519 0.81,-4.492 2.48,-5.961 1.64,-1.441 3.93,-2.179 6.9,-2.179 6.5,0 11.68,1.91 15.55,5.687 0.74,0.762 1.37,1.84 1.91,3.274 0.51,1.457 0.77,2.879 0.77,4.238 m -24.38,-25.211 c -7.11,0 -12.84,1.68 -17.14,5.051 -4.34,3.398 -6.5,7.851 -6.5,13.34 0,5.832 1.94,10.5 5.83,14 3.92,3.492 9.62,5.691 17.11,6.582 l 13.35,1.508 c 3.48,0.41 6.37,1.062 8.7,2.011 0.98,0.391 1.76,1.117 2.27,2.129 0.57,0.988 0.76,2.031 0.61,3.09 -0.3,1.82 -1.39,3.23 -3.35,4.238 -2.27,1.211 -5.59,1.801 -9.93,1.801 -3.86,0 -6.87,-0.758 -9.02,-2.328 -2.17,-1.563 -3.33,-3.762 -3.46,-6.621 l -19.44,0 c 0.43,7.461 3.49,13.039 9.18,16.781 5.69,3.688 25.98,5.539 37,5.539 9.58,0 5.16,-1.68 10.7,-5.031 5.53,-3.34 8.32,-7.891 8.32,-13.68 l 0,-35.629 c 0,-2.879 0.28,-4.859 0.83,-6.019 0.57,-1.141 1.71,-2.051 3.41,-2.719 l 0,-2.363 -21.9,0 0,0.031 c -0.9,2.57 -1.48,5.078 -1.75,7.551 l -0.09,0.129 c -6.37,-6.27 -14.61,-9.391 -24.73,-9.391" /><path
         id="path34"
         style="fill:#231f20;fill-opacity:1;fill-rule:nonzero;stroke:none"
         d="m 1454.48,790.18 0,63.781 19.31,0 0,-10.262 c 0.87,1.813 2,3.391 3.36,4.813 4.48,4.769 10.97,7.148 19.47,7.148 6.79,0 12.33,-1.871 16.68,-5.66 1.67,-1.469 3,-3.078 3.99,-4.801 l 2.48,3.313 c 4.19,4.769 10.29,7.148 18.31,7.148 8.34,0 14.87,-2.051 19.58,-6.172 4.7,-4.066 7.07,-9.769 7.07,-17.027 l 0,-42.281 -20.27,0 0,37.48 c 0,4.75 -0.95,8.281 -2.81,10.57 -1.92,2.282 -4.84,3.411 -8.8,3.411 -4.23,0 -7.48,-1.063 -9.73,-3.243 -2.25,-2.179 -3.35,-5.289 -3.35,-9.347 l 0,-38.871 -20.27,0 0,40.23 c 0,3.84 -0.99,6.672 -2.97,8.488 -1.98,1.84 -4.99,2.743 -9.09,2.743 -4.07,0 -7.21,-1.063 -9.4,-3.243 -2.19,-2.179 -3.29,-5.289 -3.29,-9.347 l 0,-38.871 -20.27,0" /><path
         id="path36"
         style="fill:#231f20;fill-opacity:1;fill-rule:nonzero;stroke:none"
         d="m 1216.34,790.18 0,63.781 19.29,0 0,-11.422 c 0.7,1.242 1.52,2.461 2.41,3.609 4.75,6.34 10.89,9.512 18.45,9.512 l 4.57,-0.051 0,-17.211 c -1.77,0.184 -3.79,0.25 -6.07,0.25 -6.17,0 -10.79,-1.257 -13.82,-3.789 -3.04,-2.539 -4.56,-6.398 -4.56,-11.558 l 0,-33.121 -20.27,0" /><path
         id="path38"
         style="fill:#231f20;fill-opacity:1;fill-rule:nonzero;stroke:none"
         d="m 979.746,813.75 0,7.332 c -2.355,-1.113 -5.449,-1.98 -9.324,-2.66 l -7.469,-1.152 c -3.535,-0.551 -6.23,-1.559 -8.066,-3.032 -1.828,-1.457 -2.746,-3.308 -2.746,-5.547 0,-2.519 0.82,-4.492 2.492,-5.961 1.629,-1.441 3.918,-2.179 6.887,-2.179 6.511,0 11.691,1.91 15.543,5.687 0.75,0.762 1.386,1.84 1.921,3.274 0.5,1.457 0.762,2.879 0.762,4.238 m -24.371,-25.211 c -7.113,0 -12.828,1.68 -17.133,5.051 -4.351,3.398 -6.515,7.851 -6.515,13.34 0,5.832 1.949,10.5 5.843,14 3.907,3.492 9.618,5.691 17.102,6.582 l 13.359,1.508 c 3.477,0.41 6.375,1.062 8.688,2.011 0.976,0.391 1.754,1.117 2.277,2.129 0.563,0.988 0.75,2.031 0.594,3.09 -0.281,1.82 -1.379,3.23 -3.313,4.238 -2.289,1.211 -5.621,1.801 -9.925,1.801 -3.887,0 -6.899,-0.758 -9.043,-2.328 -2.172,-1.563 -3.332,-3.762 -3.485,-6.621 l -19.414,0 c 0.414,7.461 3.485,13.039 9.176,16.781 5.676,3.688 14.043,5.539 25.066,5.539 9.571,0 17.094,-1.68 22.649,-5.031 5.512,-3.34 8.293,-7.891 8.293,-13.68 l 0,-35.629 c 0,-2.879 0.297,-4.859 0.826,-6.019 0.59,-1.141 1.72,-2.051 3.42,-2.719 l 0,-2.363 -21.883,0 0,0.031 c -0.922,2.57 -1.504,5.078 -1.766,7.551 l -0.07,0.129 c -6.371,-6.27 -14.617,-9.391 -24.746,-9.391" /><path
         id="path40"
         style="fill:#231f20;fill-opacity:1;fill-rule:nonzero;stroke:none"
         d="m 662.082,790.18 0,86.183 20.277,0 0,-30.484 1.618,1.859 c 4.976,5.274 12.238,7.922 21.777,7.922 8.086,0 14.437,-2 19.012,-5.969 4.609,-3.98 6.902,-9.543 6.902,-16.582 l 0,-42.929 -20.277,0 0,39.879 c 0,3.941 -1.024,6.871 -3.075,8.761 -2.039,1.918 -5.214,2.821 -9.449,2.821 -5.297,0 -9.39,-1.301 -12.238,-3.95 -2.848,-2.679 -4.27,-6.511 -4.27,-11.511 l 0,-36 -20.277,0" /><path
         id="path42"
         style="fill:#231f20;fill-opacity:1;fill-rule:nonzero;stroke:none"
         d="m 407.797,835.781 18.109,0 c 6.074,0 10.621,1.117 13.676,3.348 3.02,2.223 4.543,5.59 4.543,10.082 0,4.129 -1.523,7.168 -4.543,9.23 -3.055,2.079 -7.602,3.09 -13.676,3.09 l -18.109,0 0,-25.75 z m -21.676,-45.601 0,86.183 43.449,0 c 11.813,0 20.797,-2.304 26.961,-6.886 6.184,-4.598 9.274,-11.286 9.274,-20.098 0,-9.289 -3.09,-16.367 -9.274,-21.168 -6.164,-4.859 -15.148,-7.262 -26.961,-7.262 -8.386,0.031 -15.636,0 -21.773,-0.117 l 0,-30.652 -21.676,0" /><path
         id="path44"
         style="fill:#7b7979;fill-opacity:1;fill-rule:nonzero;stroke:none"
         d="M 68.4492,82.2109 C 62.875,79.9297 54.5156,78.0117 43.375,76.4219 37.0664,75.5 32.6016,74.4805 29.9844,73.3398 27.375,72.2109 25.3516,70.5391 23.9297,68.3516 c -1.418,-2.1914 -2.1289,-4.6211 -2.1289,-7.2813 0,-4.1015 1.5508,-7.5117 4.6484,-10.2383 3.0977,-2.7304 7.6328,-4.0937 13.6016,-4.0937 5.9101,0 11.1719,1.293 15.7734,3.8828 4.6055,2.5781 7.9883,6.1172 10.1485,10.6094 1.6484,3.4687 2.4765,8.5898 2.4765,15.3476 l 0,5.6328 z M 69.7266,47.9297 C 64.043,43.1016 58.5703,39.6914 53.3125,37.6992 c -5.2617,-2 -10.9062,-2.9883 -16.9297,-2.9883 -9.9453,0 -17.5976,2.4297 -22.9414,7.2891 -5.33984,4.8711 -8.01562,11.082 -8.01562,18.6406 0,4.4297 1.01172,8.4805 3.02735,12.1407 2.01957,3.6796 4.66407,6.6171 7.93357,8.8281 3.2656,2.2226 6.9492,3.9023 11.0391,5.0312 3.0156,0.8008 7.5664,1.5703 13.6484,2.3086 12.3946,1.4805 21.5196,3.2422 27.375,5.2891 0.0508,2.1015 0.0821,3.4414 0.0821,4 0,6.2497 -1.4454,10.6717 -4.3477,13.2307 -3.9258,3.461 -9.75,5.191 -17.4844,5.191 -7.2148,0 -12.5469,-1.262 -15.9844,-3.789 -3.4453,-2.531 -5.9882,-7.012 -7.6328,-13.4296 L 8.07031,101.488 c 1.36328,6.422 3.60939,11.614 6.73829,15.563 3.125,3.949 7.6445,6.988 13.5547,9.121 5.914,2.129 12.7656,3.199 20.5586,3.199 7.7304,0 14.0078,-0.91 18.8437,-2.73 4.8321,-1.813 8.3867,-4.11 10.6563,-6.86 2.2773,-2.761 3.8672,-6.242 4.7773,-10.449 0.5117,-2.621 0.7696,-7.344 0.7696,-14.1523 l 0,-20.4688 c 0,-14.2695 0.3242,-23.3007 0.9765,-27.082 0.6563,-3.7773 1.9492,-7.3984 3.8828,-10.8672 l -16.0312,0 c -1.5899,3.1797 -2.6172,6.8985 -3.0703,11.168" /><path
         id="path46"
         style="fill:#7b7979;fill-opacity:1;fill-rule:nonzero;stroke:none"
         d="m 244.648,102.34 32.321,0 c 10.687,0 18.277,1.992 22.769,5.969 4.492,3.98 6.739,9.57 6.739,16.8 0,5.219 -1.325,9.711 -3.965,13.43 -2.649,3.723 -6.129,6.18 -10.449,7.383 -2.786,0.726 -7.93,1.098 -15.434,1.098 l -31.981,0 0,-44.68 z m -16.546,-65.5783 0,125.0193 47.164,0 c 8.293,0 14.636,-0.402 19.011,-1.191 6.145,-1.031 11.286,-2.981 15.438,-5.852 4.148,-2.867 7.488,-6.898 10.023,-12.058 2.524,-5.18 3.793,-10.86 3.793,-17.059 0,-10.633 -3.383,-19.633 -10.152,-26.9999 -6.762,-7.3594 -18.988,-11.0313 -36.668,-11.0313 l -32.063,0 0,-50.8281 -16.546,0" /><path
         id="path48"
         style="fill:#7b7979;fill-opacity:1;fill-rule:nonzero;stroke:none"
         d="m 380.035,36.7617 0,125.0193 16.543,0 0,-51.34 64.985,0 0,51.34 16.542,0 0,-125.0193 -16.542,0 0,58.9297 -64.985,0 0,-58.9297 -16.543,0" /><path
         id="path50"
         style="fill:#7b7979;fill-opacity:1;fill-rule:nonzero;stroke:none"
         d="m 552.602,97.3906 c 0,-15.0625 4.054,-26.9297 12.156,-35.6015 8.097,-8.668 18.262,-13.0078 30.48,-13.0078 12.453,0 22.703,4.3789 30.75,13.1406 8.039,8.7578 12.063,21.1797 12.063,37.2578 0,10.1793 -1.715,19.0583 -5.16,26.6523 -3.438,7.59 -8.469,13.477 -15.094,17.656 -6.625,4.184 -14.055,6.274 -22.297,6.274 -11.715,0 -21.789,-4.032 -30.23,-12.071 -8.442,-8.05 -12.668,-21.48 -12.668,-40.3004 z m -17.055,0.2578 c 0,20.7496 5.57,36.9926 16.715,48.7426 11.14,11.738 25.527,17.609 43.148,17.609 11.543,0 21.949,-2.77 31.219,-8.281 9.262,-5.508 16.324,-13.199 21.187,-23.059 4.86,-9.871 7.293,-21.058 7.293,-33.5702 0,-12.6679 -2.558,-24.0078 -7.675,-34.0195 -5.118,-10.0117 -12.364,-17.582 -21.75,-22.7187 -9.379,-5.1524 -19.496,-7.7227 -30.356,-7.7227 -11.769,0 -22.285,2.8399 -31.555,8.5313 -9.265,5.6796 -16.289,13.4414 -21.062,23.2812 -4.777,9.8281 -7.164,20.2305 -7.164,31.207" /><path
         id="path52"
         style="fill:#7b7979;fill-opacity:1;fill-rule:nonzero;stroke:none"
         d="m 711.695,36.7617 0,125.0193 90.395,0 0,-14.761 -73.848,0 0,-38.29 69.16,0 0,-14.6714 -69.16,0 0,-42.5391 76.75,0 0,-14.7578 -93.297,0" /><path
         id="path54"
         style="fill:#7b7979;fill-opacity:1;fill-rule:nonzero;stroke:none"
         d="m 862.609,36.7617 0,125.0193 16.965,0 65.664,-98.1599 0,98.1599 15.86,0 0,-125.0193 -16.965,0 -65.664,98.2383 0,-98.2383 -15.86,0" /><path
         id="path56"
         style="fill:#7b7979;fill-opacity:1;fill-rule:nonzero;stroke:none"
         d="m 1026.65,36.7617 16.543,0 0,125.02 -16.543,0 0,-125.02 z" /><path
         id="path58"
         style="fill:#7b7979;fill-opacity:1;fill-rule:nonzero;stroke:none"
         d="m 1094.58,36.7617 48.36,65.1603 -42.65,59.859 19.71,0 22.68,-32.07 c 4.71,-6.652 8.07,-11.77 10.06,-15.34 2.78,4.539 6.08,9.277 9.89,14.238 l 25.15,33.172 18.01,0 -43.92,-58.929 47.32,-66.0903 -20.47,0 -31.46,44.5977 c -1.76,2.5625 -3.58,5.3398 -5.45,8.3594 -2.8,-4.5469 -4.79,-7.6797 -5.98,-9.3907 l -31.38,-43.5664 -19.87,0" /><path
         id="path60"
         style="fill:#7b7979;fill-opacity:1;fill-rule:nonzero;stroke:none"
         d="m 1399.29,69.9297 15.1,-1.9609 c -1.66,-10.3985 -5.87,-18.5391 -12.67,-24.4297 -6.79,-5.8789 -15.14,-8.8282 -25.03,-8.8282 -12.39,0 -22.35,4.0508 -29.88,12.1602 -7.54,8.0898 -11.3,19.6992 -11.3,34.8281 0,9.7813 1.62,18.3318 4.85,25.6718 3.24,7.328 8.18,12.84 14.8,16.5 6.63,3.668 13.82,5.5 21.62,5.5 9.83,0 17.88,-2.48 24.13,-7.461 6.26,-4.969 10.26,-12.039 12.03,-21.199 l -14.93,-2.2891 c -1.42,6.0661 -3.94,10.6481 -7.54,13.7191 -3.61,3.078 -7.98,4.609 -13.1,4.609 -7.73,0 -14.01,-2.77 -18.84,-8.309 -4.84,-5.55 -7.25,-14.3199 -7.25,-26.3121 0,-12.168 2.33,-21.0078 6.99,-26.5195 4.66,-5.5196 10.74,-8.2696 18.25,-8.2696 6.03,0 11.06,1.8399 15.1,5.5313 4.03,3.6992 6.59,9.3906 7.67,17.0586" /><path
         id="path62"
         style="fill:#7b7979;fill-opacity:1;fill-rule:nonzero;stroke:none"
         d="m 1472.51,82.0391 c 0,-11.5977 2.53,-20.2774 7.59,-26.0508 5.07,-5.7695 11.43,-8.6485 19.11,-8.6485 7.62,0 13.95,2.8985 19.01,8.6993 5.06,5.7929 7.59,14.6406 7.59,26.5117 0,11.1992 -2.55,19.6872 -7.63,25.4612 -5.09,5.769 -11.41,8.648 -18.97,8.648 -7.68,0 -14.04,-2.871 -19.11,-8.609 -5.06,-5.742 -7.59,-14.4104 -7.59,-26.0119 z m -15.77,0 c 0,16.7695 4.66,29.1909 13.98,37.2699 7.79,6.711 17.29,10.062 28.49,10.062 12.45,0 22.63,-4.082 30.53,-12.242 7.9,-8.149 11.85,-19.4181 11.85,-33.8087 0,-11.6601 -1.75,-20.8203 -5.24,-27.5 -3.5,-6.6797 -8.6,-11.8711 -15.28,-15.5586 -6.67,-3.7031 -13.96,-5.5508 -21.86,-5.5508 -12.69,0 -22.93,4.0704 -30.74,12.1993 -7.82,8.1289 -11.73,19.8398 -11.73,35.1289" /><path
         id="path64"
         style="fill:#7b7979;fill-opacity:1;fill-rule:nonzero;stroke:none"
         d="m 1594.51,36.7617 0,90.5663 13.73,0 0,-12.707 c 2.84,4.43 6.62,8 11.34,10.699 4.72,2.7 10.1,4.051 16.12,4.051 6.71,0 12.21,-1.391 16.5,-4.172 4.29,-2.801 7.32,-6.687 9.08,-11.687 7.17,10.566 16.49,15.859 27.98,15.859 8.97,0 15.89,-2.48 20.72,-7.461 4.83,-4.969 7.25,-12.64 7.25,-22.9803 l 0,-62.168 -15.27,0 0,57.0469 c 0,6.1406 -0.49,10.5624 -1.49,13.2614 -1,2.7 -2.8,4.879 -5.42,6.532 -2.61,1.648 -5.68,2.468 -9.21,2.468 -6.37,0 -11.65,-2.121 -15.86,-6.351 -4.21,-4.239 -6.31,-11.0198 -6.31,-20.3401 l 0,-52.6172 -15.35,0 0,58.8399 c 0,6.8204 -1.25,11.9374 -3.75,15.3474 -2.5,3.422 -6.6,5.121 -12.28,5.121 -4.32,0 -8.31,-1.14 -11.99,-3.41 -3.66,-2.281 -6.32,-5.609 -7.97,-9.98 -1.65,-4.3792 -2.47,-10.6917 -2.47,-18.93 l 0,-46.9883 -15.35,0" /><path
         id="path66"
         style="fill:#7b7979;fill-opacity:1;fill-rule:nonzero;stroke:none"
         d="m 1788.82,81.5313 c 0,-11.6602 2.36,-20.2696 7.08,-25.8321 4.72,-5.5781 10.43,-8.3594 17.14,-8.3594 6.82,0 12.66,2.879 17.53,8.6485 4.86,5.7734 7.28,14.7109 7.28,26.8203 0,11.543 -2.37,20.1794 -7.12,25.9214 -4.74,5.739 -10.42,8.622 -17.01,8.622 -6.53,0 -12.32,-3.063 -17.35,-9.172 -5.03,-6.11 -7.55,-14.9886 -7.55,-26.6487 z m -13.9,-79.48052 0,125.27722 13.99,0 0,-11.769 c 3.3,4.601 7.02,8.062 11.17,10.363 4.15,2.297 9.18,3.449 15.1,3.449 7.72,0 14.55,-1.992 20.46,-5.973 5.91,-3.968 10.38,-9.589 13.38,-16.839 3.02,-7.2504 4.53,-15.1879 4.53,-23.8285 0,-9.2696 -1.66,-17.6094 -4.99,-25.0313 -3.33,-7.4179 -8.16,-13.1094 -14.5,-17.0586 -6.33,-3.9492 -13,-5.9297 -20,-5.9297 -5.11,0 -9.7,1.0782 -13.77,3.2383 -4.07,2.1602 -7.41,4.8906 -10.02,8.1914 l 0,-44.08982 -15.35,0" /><path
         id="path68"
         style="fill:#7b7979;fill-opacity:1;fill-rule:nonzero;stroke:none"
         d="m 1964.81,82.2109 c -5.57,-2.2812 -13.93,-4.1992 -25.07,-5.789 -6.31,-0.9219 -10.77,-1.9414 -13.39,-3.0821 -2.62,-1.1289 -4.63,-2.8007 -6.06,-4.9882 -1.41,-2.1914 -2.13,-4.6211 -2.13,-7.2813 0,-4.1015 1.55,-7.5117 4.65,-10.2383 3.1,-2.7304 7.63,-4.0937 13.61,-4.0937 5.9,0 11.17,1.293 15.77,3.8828 4.61,2.5781 7.99,6.1172 10.14,10.6094 1.65,3.4687 2.48,8.5898 2.48,15.3476 l 0,5.6328 z m 1.27,-34.2812 c -5.68,-4.8281 -11.15,-8.2383 -16.41,-10.2305 -5.26,-2 -10.9,-2.9883 -16.93,-2.9883 -9.95,0 -17.59,2.4297 -22.93,7.2891 -5.35,4.8711 -8.02,11.082 -8.02,18.6406 0,4.4297 1,8.4805 3.03,12.1407 2.02,3.6796 4.65,6.6171 7.92,8.8281 3.28,2.2226 6.96,3.9023 11.05,5.0312 3.02,0.8008 7.56,1.5703 13.64,2.3086 12.39,1.4805 21.53,3.2422 27.38,5.2891 0.05,2.1015 0.08,3.4414 0.08,4 0,6.2497 -1.44,10.6717 -4.34,13.2307 -3.93,3.461 -9.76,5.191 -17.48,5.191 -7.23,0 -12.55,-1.262 -16,-3.789 -3.44,-2.531 -5.98,-7.012 -7.63,-13.4296 l -15.01,2.0466 c 1.37,6.422 3.62,11.614 6.74,15.563 3.13,3.949 7.65,6.988 13.56,9.121 5.92,2.129 12.76,3.199 20.55,3.199 7.73,0 14.02,-0.91 18.85,-2.73 4.83,-1.813 8.38,-4.11 10.66,-6.86 2.27,-2.761 3.86,-6.242 4.77,-10.449 0.52,-2.621 0.77,-7.344 0.77,-14.1523 l 0,-20.4688 c 0,-14.2695 0.32,-23.3007 0.98,-27.082 0.65,-3.7773 1.95,-7.3984 3.89,-10.8672 l -16.04,0 c -1.59,3.1797 -2.62,6.8985 -3.08,11.168" /><path
         id="path70"
         style="fill:#7b7979;fill-opacity:1;fill-rule:nonzero;stroke:none"
         d="m 2039.05,36.7617 0,90.5663 13.82,0 0,-12.879 c 6.65,9.949 16.25,14.922 28.82,14.922 5.46,0 10.48,-0.98 15.05,-2.941 4.58,-1.969 8.01,-4.532 10.28,-7.719 2.27,-3.18 3.86,-6.961 4.78,-11.34 0.56,-2.851 0.85,-7.8202 0.85,-14.9296 l 0,-55.6797 -15.35,0 0,55.0899 c 0,6.2578 -0.6,10.9294 -1.79,14.0274 -1.19,3.101 -3.31,5.57 -6.36,7.41 -3.04,1.852 -6.61,2.781 -10.7,2.781 -6.54,0 -12.18,-2.07 -16.93,-6.218 -4.74,-4.153 -7.12,-12.0434 -7.12,-23.6332 l 0,-49.4571 -15.35,0" /><path
         id="path72"
         style="fill:#7b7979;fill-opacity:1;fill-rule:nonzero;stroke:none"
         d="m 2170.43,1.87891 -1.71,14.41019 c 3.36,-0.9102 6.29,-1.3672 8.79,-1.3672 3.41,0 6.14,0.5781 8.18,1.707 2.05,1.1524 3.72,2.7422 5.03,4.7813 0.97,1.5312 2.53,5.3398 4.7,11.4179 0.28,0.8633 0.73,2.1133 1.36,3.7617 l -34.37,90.7382 16.55,0 18.84,-52.4569 c 2.44,-6.6523 4.64,-13.6406 6.58,-20.9727 1.75,7.0508 3.85,13.9219 6.3,20.6329 l 19.36,52.7967 15.35,0 -34.45,-92.0975 c -3.7,-9.9492 -6.56,-16.8008 -8.62,-20.5586 -2.72,-5.06252 -5.85,-8.77346 -9.38,-11.12112 C 2189.41,1.17969 2185.22,0 2180.32,0 c -2.96,0 -6.25,0.628906 -9.89,1.87891" /></g></g></svg>