<?xml version="1.0" encoding="UTF-8" standalone="no"?>
<svg
   xmlns:dc="http://purl.org/dc/elements/1.1/"
   xmlns:cc="http://creativecommons.org/ns#"
   xmlns:rdf="http://www.w3.org/1999/02/22-rdf-syntax-ns#"
   xmlns:svg="http://www.w3.org/2000/svg"
   xmlns="http://www.w3.org/2000/svg"
   viewBox="0 200 481.88501 81.88501"
   width="481.88501"
   height="81.88501"
   xml:space="preserve"
   version="1.1"
   id="svg2"><metadata
     id="metadata8"><rdf:RDF><cc:Work
         rdf:about=""><dc:format>image/svg+xml</dc:format><dc:type
           rdf:resource="http://purl.org/dc/dcmitype/StillImage" /></cc:Work></rdf:RDF></metadata><defs
     id="defs6"><clipPath
       id="clipPath16"
       clipPathUnits="userSpaceOnUse"><path
         id="path18"
         d="m 0,385.508 385.508,0 L 385.508,0 0,0 0,385.508 Z" /></clipPath></defs><g
     transform="matrix(1.25,0,0,-1.25,0,481.885)"
     id="g10"><g
       id="g12"><g
         clip-path="url(#clipPath16)"
         id="g14"><g
           transform="translate(122.6514,180.1187)"
           id="g20"><path
             id="path22"
             style="fill:#00a58d;fill-opacity:1;fill-rule:evenodd;stroke:none"
             d="m 0,0 9.945,0 0,11.866 5.41,0 c 3.984,0 6.946,0.911 8.89,2.739 1.941,1.829 2.913,4.368 2.913,7.613 0,3.156 -0.892,5.594 -2.674,7.302 -1.784,1.711 -4.466,2.569 -8.046,2.569 L 0,32.089 0,0 Z m 9.945,25.57 2.817,0 c 1.849,0 3.11,-0.353 3.781,-1.055 0.67,-0.703 1.006,-1.561 1.006,-2.571 0,-1.039 -0.386,-1.894 -1.158,-2.56 -0.774,-0.668 -2.113,-1 -4.021,-1 l -2.425,0 0,7.186 z" /></g><g
           transform="translate(156.246,212.2066)"
           id="g24"><path
             id="path26"
             style="fill:#00a58d;fill-opacity:1;fill-rule:evenodd;stroke:none"
             d="m 0,0 9.943,0 0,-11.281 10.78,0 0,11.281 9.944,0 0,-32.088 -9.944,0 0,12.952 -10.78,0 0,-12.952 -9.943,0 L 0,0 Z" /></g><g
           transform="translate(195.5933,186.749)"
           id="g28"><path
             id="path30"
             style="fill:#00a58d;fill-opacity:1;fill-rule:evenodd;stroke:none"
             d="m 0,0 c 1.473,-2.5 3.397,-4.327 5.77,-5.482 2.371,-1.156 5.366,-1.733 8.988,-1.733 3.563,0 6.535,0.667 8.922,2.004 2.386,1.34 4.211,3.213 5.472,5.619 1.264,2.404 1.896,5.487 1.896,9.247 0,5.177 -1.447,9.203 -4.336,12.077 -2.89,2.873 -7.006,4.311 -12.35,4.311 -5.211,0 -9.274,-1.464 -12.194,-4.388 C -0.751,18.731 -2.211,14.642 -2.211,9.39 -2.211,5.631 -1.474,2.5 0,0 m 9.542,16.394 c 1.207,1.418 2.808,2.128 4.8,2.128 2.079,0 3.726,-0.7 4.94,-2.097 1.215,-1.397 1.821,-3.608 1.821,-6.638 0,-3.599 -0.583,-6.093 -1.744,-7.483 -1.165,-1.387 -2.808,-2.083 -4.93,-2.083 -2.066,0 -3.697,0.708 -4.895,2.127 -1.202,1.418 -1.801,3.753 -1.801,7.001 0,3.277 0.603,5.624 1.809,7.045" /></g><g
           transform="translate(233.1113,212.2066)"
           id="g32"><path
             id="path34"
             style="fill:#00a58d;fill-opacity:1;fill-rule:evenodd;stroke:none"
             d="m 0,0 26.49,0 0,-6.853 -16.546,0 0,-5.098 15.375,0 0,-6.519 -15.375,0 0,-6.348 17.047,0 0,-7.27 L 0,-32.088 0,0 Z" /></g><g
           transform="translate(266.7049,212.2066)"
           id="g36"><path
             id="path38"
             style="fill:#00a58d;fill-opacity:1;fill-rule:evenodd;stroke:none"
             d="m 0,0 9.209,0 12.097,-17.777 0,17.777 9.362,0 0,-32.088 -9.362,0 -12.031,17.681 0,-17.681 -9.275,0 L 0,0 Z" /></g><path
           id="path40"
           style="fill:#00a58d;fill-opacity:1;fill-rule:evenodd;stroke:none"
           d="m 305.512,212.207 9.946,0 0,-32.089 -9.946,0 0,32.089 z" /><g
           transform="translate(321.5163,212.2066)"
           id="g42"><path
             id="path44"
             style="fill:#00a58d;fill-opacity:1;fill-rule:evenodd;stroke:none"
             d="m 0,0 10.949,0 5.67,-9.874 5.526,9.874 10.779,0 -9.968,-15.541 10.888,-16.547 -11.112,0 -6.31,10.31 -6.394,-10.31 -11.031,0 11.076,16.722 L 0,0 Z" /></g><g
           transform="translate(57.5039,192.5939)"
           id="g46"><path
             id="path48"
             style="fill:#00a58d;fill-opacity:1;fill-rule:evenodd;stroke:none"
             d="m 0,0 -4.96,19.27 9.89,0 L 0,0 Z" /></g><g
           transform="translate(107.1939,211.8639)"
           id="g50"><path
             id="path52"
             style="fill:#00a58d;fill-opacity:1;fill-rule:evenodd;stroke:none"
             d="m 0,0 0,-8.54 -8.68,0 -4.48,-15.55 -4.81,15.55 -9.44,0 9.8,-23.34 c -0.46,-1.25 -1.01,-2.12 -1.66,-2.6 -0.65,-0.49 -1.51,-0.73 -2.56,-0.73 -1.58,0 -3.02,0.21 -4.31,0.62 l 0.69,-6.08 -42.2,0 0,8.78 7.97,0 0,24.58 6.27,-24.58 7.38,0 6.29,24.58 0,-24.58 8.15,0 0,31.89 L 0,0 Z" /></g><g
           transform="translate(98.0639,178.3739)"
           id="g54"><path
             id="path56"
             style="fill:#00a58d;fill-opacity:1;fill-rule:evenodd;stroke:none"
             d="m 0,0 9.13,24.6 0,-31.78 -14.83,0 c 0.98,0.33 1.8,0.81 2.47,1.42 1.1,1 2.18,2.92 3.23,5.76" /></g><g
           transform="translate(107.1939,203.3239)"
           id="g58"><path
             id="path60"
             style="fill:#ffffff;fill-opacity:1;fill-rule:nonzero;stroke:none"
             d="M 0,0 0,-0.35 0.13,0 0,0 Z" /></g></g></g></g></svg>